<svg xmlns="http://www.w3.org/2000/svg" width="190.223" height="50" viewBox="0 0 190.223 50"><g transform="translate(-368.51 -888.367)"><g style="isolation:isolate"><g style="isolation:isolate"><path d="M443.313,902.441h-3.266a3.218,3.218,0,0,0-.365-1.13,2.9,2.9,0,0,0-.709-.846,3.107,3.107,0,0,0-.995-.536,3.842,3.842,0,0,0-1.22-.187,3.633,3.633,0,0,0-2.065.585,3.792,3.792,0,0,0-1.365,1.7,7.861,7.861,0,0,0,0,5.448,3.533,3.533,0,0,0,3.4,2.245,4.04,4.04,0,0,0,1.2-.172,3.082,3.082,0,0,0,.988-.5,2.871,2.871,0,0,0,.72-.81,3.216,3.216,0,0,0,.4-1.088l3.266.015a5.89,5.89,0,0,1-.63,2.024,6.084,6.084,0,0,1-1.35,1.738,6.291,6.291,0,0,1-2.013,1.208,7.372,7.372,0,0,1-2.636.444,7.189,7.189,0,0,1-3.65-.925,6.528,6.528,0,0,1-2.536-2.677,10.128,10.128,0,0,1,.011-8.494,6.569,6.569,0,0,1,2.55-2.673,7.162,7.162,0,0,1,3.625-.921,7.862,7.862,0,0,1,2.465.373,6.261,6.261,0,0,1,2.016,1.085,5.661,5.661,0,0,1,1.436,1.741A6.518,6.518,0,0,1,443.313,902.441Z" fill="#00428f"/><path d="M459.667,904.73a8.859,8.859,0,0,1-.943,4.251,6.58,6.58,0,0,1-2.565,2.674,7.673,7.673,0,0,1-7.3,0,6.586,6.586,0,0,1-2.559-2.677,10.074,10.074,0,0,1,0-8.494,6.557,6.557,0,0,1,2.559-2.673,7.687,7.687,0,0,1,7.3,0,6.571,6.571,0,0,1,2.565,2.673A8.858,8.858,0,0,1,459.667,904.73Zm-3.274,0a6.884,6.884,0,0,0-.48-2.729,3.734,3.734,0,0,0-1.354-1.685,3.925,3.925,0,0,0-4.087,0A3.714,3.714,0,0,0,449.119,902a7.97,7.97,0,0,0,0,5.459,3.7,3.7,0,0,0,1.353,1.685,3.919,3.919,0,0,0,4.087,0,3.724,3.724,0,0,0,1.354-1.685A6.882,6.882,0,0,0,456.393,904.73Z" fill="#00428f"/><path d="M462.053,912.367V897.095h6.026a6.539,6.539,0,0,1,2.957.615,4.354,4.354,0,0,1,1.872,1.737,5.208,5.208,0,0,1,.644,2.636,4.986,4.986,0,0,1-.656,2.614,4.25,4.25,0,0,1-1.9,1.674,7.03,7.03,0,0,1-3,.582h-4.035v-2.6h3.513a4.035,4.035,0,0,0,1.536-.254,1.845,1.845,0,0,0,.913-.76,2.43,2.43,0,0,0,.3-1.261,2.523,2.523,0,0,0-.3-1.282,1.912,1.912,0,0,0-.917-.794,3.822,3.822,0,0,0-1.548-.273h-2.176v12.633Zm8.248-6.95,3.8,6.95h-3.564l-3.714-6.95Z" fill="#00428f"/><path d="M475.834,912.367V897.095h6.026a6.151,6.151,0,0,1,2.961.66,4.554,4.554,0,0,1,1.868,1.826,5.467,5.467,0,0,1,.644,2.688,5.363,5.363,0,0,1-.656,2.685,4.533,4.533,0,0,1-1.9,1.813,6.419,6.419,0,0,1-3,.648h-3.841v-2.587h3.319a3.243,3.243,0,0,0,1.54-.325,2.127,2.127,0,0,0,.91-.9,3.093,3.093,0,0,0,0-2.662,2.1,2.1,0,0,0-.914-.886,3.346,3.346,0,0,0-1.551-.318h-2.177v12.633Z" fill="#00428f"/><path d="M503.472,904.73a8.859,8.859,0,0,1-.943,4.251,6.582,6.582,0,0,1-2.566,2.674,7.673,7.673,0,0,1-7.3,0,6.584,6.584,0,0,1-2.558-2.677,10.064,10.064,0,0,1,0-8.494,6.555,6.555,0,0,1,2.558-2.673,7.687,7.687,0,0,1,7.3,0,6.573,6.573,0,0,1,2.566,2.673A8.858,8.858,0,0,1,503.472,904.73Zm-3.274,0a6.866,6.866,0,0,0-.481-2.729,3.726,3.726,0,0,0-1.353-1.685,3.925,3.925,0,0,0-4.087,0A3.721,3.721,0,0,0,492.923,902a7.985,7.985,0,0,0,0,5.459,3.711,3.711,0,0,0,1.354,1.685,3.919,3.919,0,0,0,4.087,0,3.716,3.716,0,0,0,1.353-1.685A6.864,6.864,0,0,0,500.2,904.73Z" fill="#00428f"/><path d="M505.858,912.367V897.095h6.025a6.533,6.533,0,0,1,2.957.615,4.343,4.343,0,0,1,1.872,1.737,5.2,5.2,0,0,1,.645,2.636,4.986,4.986,0,0,1-.656,2.614,4.256,4.256,0,0,1-1.9,1.674,7.031,7.031,0,0,1-3,.582h-4.034v-2.6h3.513a4.035,4.035,0,0,0,1.536-.254,1.845,1.845,0,0,0,.913-.76,2.43,2.43,0,0,0,.3-1.261,2.523,2.523,0,0,0-.3-1.282,1.912,1.912,0,0,0-.917-.794,3.826,3.826,0,0,0-1.548-.273h-2.177v12.633Zm8.248-6.95,3.8,6.95h-3.565l-3.714-6.95Z" fill="#00428f"/><path d="M522.272,912.367h-3.461l5.272-15.272h4.162l5.265,15.272h-3.461l-3.825-11.782H526.1Zm-.217-6h8.174v2.521h-8.174Z" fill="#00428f"/><path d="M532.883,899.757v-2.662h12.544v2.662h-4.676v12.61h-3.192v-12.61Z" fill="#00428f"/><path d="M547.5,912.367V897.095h10.291v2.662h-7.062V903.4h6.533v2.664h-6.533v3.646h7.092v2.662Z" fill="#00428f"/></g></g><g style="isolation:isolate"><g style="isolation:isolate"><path d="M430.786,922.64v8.727h-1.317V922.64Z" fill="#262626"/><path d="M440.707,922.64v8.727H439.5l-4.437-6.4h-.081v6.4h-1.316V922.64h1.218l4.441,6.409h.081V922.64Z" fill="#262626"/><path d="M443.155,923.773V922.64h6.754v1.133h-2.723v7.594h-1.313v-7.594Z" fill="#262626"/><path d="M452.356,931.367V922.64h5.472v1.133h-4.156v2.66h3.87v1.128h-3.87v2.672h4.206v1.134Z" fill="#262626"/><path d="M460.552,931.367V922.64h3.111a3.64,3.64,0,0,1,1.685.349,2.33,2.33,0,0,1,1,.965,2.946,2.946,0,0,1,.333,1.422,2.86,2.86,0,0,1-.335,1.408,2.269,2.269,0,0,1-1.006.943,3.732,3.732,0,0,1-1.684.337H461.3v-1.133h2.237a2.538,2.538,0,0,0,1.042-.183,1.215,1.215,0,0,0,.59-.533,1.753,1.753,0,0,0,.188-.839,1.83,1.83,0,0,0-.19-.857,1.267,1.267,0,0,0-.592-.556,2.451,2.451,0,0,0-1.055-.194h-1.653v7.6Zm4.308-3.937,2.156,3.937h-1.5L463.4,927.43Z" fill="#262626"/><path d="M476.294,922.64v8.727h-1.21l-4.436-6.4h-.081v6.4H469.25V922.64h1.219l4.441,6.409h.081V922.64Z" fill="#262626"/><path d="M479.172,931.367V922.64h5.471v1.133h-4.154v2.66h3.869v1.128h-3.869v2.672H484.7v1.134Z" fill="#262626"/><path d="M486.937,923.773V922.64h6.755v1.133h-2.724v7.594h-1.312v-7.594Z" fill="#262626"/><path d="M500.278,931.367V922.64h3.195a3.436,3.436,0,0,1,1.539.3,2.112,2.112,0,0,1,.911.823,2.265,2.265,0,0,1,.3,1.166,1.91,1.91,0,0,1-.2.917,1.628,1.628,0,0,1-.535.6,2.34,2.34,0,0,1-.735.326v.085a1.77,1.77,0,0,1,.85.28,2.027,2.027,0,0,1,.688.73,2.27,2.27,0,0,1,.273,1.151,2.325,2.325,0,0,1-.313,1.2,2.161,2.161,0,0,1-.965.84,3.9,3.9,0,0,1-1.666.308Zm1.316-4.952h1.764a1.84,1.84,0,0,0,.8-.17,1.4,1.4,0,0,0,.566-.479,1.265,1.265,0,0,0,.211-.731,1.211,1.211,0,0,0-.379-.908,1.622,1.622,0,0,0-1.164-.366h-1.8Zm0,3.823h1.9a2.011,2.011,0,0,0,1.355-.367,1.178,1.178,0,0,0,.409-.916,1.445,1.445,0,0,0-.209-.759,1.5,1.5,0,0,0-.594-.549,1.931,1.931,0,0,0-.915-.2h-1.947Z" fill="#262626"/><path d="M509.824,931.367h-1.4l3.141-8.727h1.521l3.141,8.727h-1.4l-2.468-7.142h-.069Zm.234-3.418h4.534v1.109h-4.534Z" fill="#262626"/><path d="M525.49,922.64v8.727h-1.21l-4.437-6.4h-.081v6.4h-1.316V922.64h1.219l4.44,6.409h.081V922.64Z" fill="#262626"/><path d="M528.368,931.367V922.64h1.316v4.168h.107l3.661-4.168h1.657l-3.52,3.929,3.533,4.8h-1.585l-2.822-3.9-1.031,1.184v2.715Z" fill="#262626"/><path d="M538.617,922.64v8.727H537.3V922.64Z" fill="#262626"/><path d="M548.539,922.64v8.727h-1.21l-4.437-6.4h-.081v6.4h-1.316V922.64h1.218l4.441,6.409h.081V922.64Z" fill="#262626"/><path d="M557.323,925.4a2.765,2.765,0,0,0-.33-.7,2.2,2.2,0,0,0-.493-.528,2.077,2.077,0,0,0-.65-.335,2.66,2.66,0,0,0-.8-.114,2.419,2.419,0,0,0-1.329.378,2.573,2.573,0,0,0-.935,1.111,4.832,4.832,0,0,0,0,3.581,2.56,2.56,0,0,0,.946,1.112,2.505,2.505,0,0,0,1.368.38,2.555,2.555,0,0,0,1.242-.29,2.034,2.034,0,0,0,.822-.82,2.553,2.553,0,0,0,.292-1.251l.341.064h-2.5V926.9h3.43v.993a3.746,3.746,0,0,1-.466,1.907,3.2,3.2,0,0,1-1.287,1.247,4.237,4.237,0,0,1-3.955-.107,3.69,3.69,0,0,1-1.391-1.549,5.294,5.294,0,0,1-.5-2.384,5.669,5.669,0,0,1,.29-1.875,4.091,4.091,0,0,1,.816-1.413,3.561,3.561,0,0,1,1.24-.891,3.91,3.91,0,0,1,1.562-.309,4.062,4.062,0,0,1,1.319.209,3.606,3.606,0,0,1,1.091.592,3.409,3.409,0,0,1,.795.91,3.373,3.373,0,0,1,.425,1.166Z" fill="#262626"/></g></g><rect width="50" height="50" rx="5" transform="translate(368.51 888.367)" fill="#00428f"/><path d="M377.01,898.141v32.08h18.461V916.582h8.847v13.6h4.8V898.141Zm4.8,4.806h8.856v8.833h-8.849Zm0,13.635h8.856v8.833h-8.849Zm22.5-4.8h-8.847v-8.833h8.847Z" fill="#fff"/></g></svg>