<?xml version="1.0" encoding="UTF-8"?>
<svg xmlns="http://www.w3.org/2000/svg" xmlns:xlink="http://www.w3.org/1999/xlink" width="430.94pt" height="93.95pt" viewBox="0 0 430.94 93.95" version="1.1">
<defs>
<clipPath id="clip1">
  <path d="M 0 0 L 430.941406 0 L 430.941406 93.949219 L 0 93.949219 Z M 0 0 "/>
</clipPath>
</defs>
<g id="surface1">
<g clip-path="url(#clip1)" clip-rule="nonzero">
<path style="fill-rule:nonzero;fill:rgb(12.199402%,38.398743%,68.598938%);fill-opacity:1;stroke-width:6.64;stroke-linecap:butt;stroke-linejoin:miter;stroke:rgb(100%,100%,100%);stroke-opacity:1;stroke-miterlimit:4;" d="M 3.320313 3.328125 L 4306.054688 3.328125 L 4306.054688 936.140625 L 3.320313 936.140625 Z M 3.320313 3.328125 " transform="matrix(0.1,0,0,-0.1,0,93.95)"/>
</g>
<path style=" stroke:none;fill-rule:nonzero;fill:rgb(100%,100%,100%);fill-opacity:1;" d="M 66.539063 44.015625 L 50.035156 44.015625 L 50.035156 27.535156 L 66.539063 27.535156 Z M 24.554688 52.972656 L 41.066406 52.972656 L 41.066406 69.453125 L 24.554688 69.453125 Z M 24.554688 27.535156 L 41.066406 27.535156 L 41.066406 44.015625 L 24.554688 44.015625 Z M 15.59375 18.570313 L 15.59375 78.417969 L 50.035156 78.417969 L 50.035156 52.972656 L 66.539063 52.972656 L 66.539063 78.339844 L 75.5 78.339844 L 75.5 18.570313 "/>
<path style=" stroke:none;fill-rule:nonzero;fill:rgb(100%,100%,100%);fill-opacity:1;" d="M 113.359375 69.292969 L 113.359375 53.210938 L 117.023438 53.210938 C 124.265625 53.210938 127.242188 55.644531 127.242188 61.46875 C 127.242188 66.691406 124.035156 69.292969 117.546875 69.292969 Z M 103.65625 78.417969 L 120.460938 78.417969 C 130.910156 78.417969 137.257813 72.25 137.257813 61.988281 C 137.257813 54.164063 133.820313 49.121094 127.171875 47.460938 C 131.140625 44.773438 132.617188 41.472656 132.617188 35.734375 C 132.617188 30.953125 130.910156 26.429688 128.140625 23.90625 C 125.609375 21.558594 121.722656 20.4375 115.972656 20.4375 L 103.65625 20.4375 Z M 113.359375 44.597656 L 113.359375 29.558594 L 116.269531 29.558594 C 121.128906 29.558594 123.667969 32.171875 123.667969 37.039063 C 123.667969 42.074219 121.128906 44.597656 116.128906 44.597656 "/>
<path style=" stroke:none;fill-rule:nonzero;fill:rgb(100%,100%,100%);fill-opacity:1;" d="M 169.574219 39.5625 L 169.574219 44.421875 C 166.441406 40.171875 163.238281 38.339844 158.902344 38.339844 C 149.941406 38.339844 143.082031 46.957031 143.082031 58.253906 C 143.082031 69.820313 149.875 78.417969 159.042969 78.417969 C 163.453125 78.417969 166.671875 76.5 169.574219 72.339844 L 169.574219 77.210938 L 178.613281 77.210938 L 178.613281 39.5625 Z M 161.527344 47.820313 C 166.515625 47.820313 170.550781 52.519531 170.550781 58.421875 C 170.550781 64.242188 166.515625 68.945313 161.527344 68.945313 C 156.519531 68.945313 152.40625 64.167969 152.40625 58.335938 C 152.40625 52.519531 156.429688 47.820313 161.527344 47.820313 "/>
<path style=" stroke:none;fill-rule:nonzero;fill:rgb(100%,100%,100%);fill-opacity:1;" d="M 196.304688 40.773438 L 196.304688 45.46875 C 199.144531 41.214844 202.054688 39.546875 206.527344 39.546875 C 210.257813 39.546875 213.699219 41.214844 215.867188 44.078125 C 217.734375 46.601563 218.398438 49.390625 218.398438 54.507813 L 218.398438 78.417969 L 209.367188 78.417969 L 209.367188 57.554688 C 209.367188 51.039063 207.644531 48.511719 203.167969 48.511719 C 198.539063 48.511719 196.304688 51.820313 196.304688 58.949219 L 196.304688 78.417969 L 187.273438 78.417969 L 187.273438 40.773438 "/>
<path style=" stroke:none;fill-rule:nonzero;fill:rgb(100%,100%,100%);fill-opacity:1;" d="M 236.101563 54.507813 L 248.1875 40.773438 L 260.4375 40.773438 L 245.285156 57.289063 L 261.632813 78.421875 L 249.160156 78.421875 L 237.074219 62.246094 L 236.101563 63.386719 L 236.101563 78.421875 L 227.066406 78.421875 L 227.066406 15.53125 L 236.101563 15.53125 "/>
<path style=" stroke:none;fill-rule:nonzero;fill:rgb(100%,100%,100%);fill-opacity:1;" d="M 315.230469 66.167969 L 319.484375 78.421875 L 329.863281 78.421875 L 308.949219 19.214844 L 301.644531 19.214844 L 280.074219 78.421875 L 290.371094 78.421875 L 294.851563 66.167969 Z M 312.164063 57.027344 L 297.984375 57.027344 L 305.234375 36.164063 "/>
<path style=" stroke:none;fill-rule:nonzero;fill:rgb(100%,100%,100%);fill-opacity:1;" d="M 352.03125 48.339844 C 350.101563 46.601563 348.457031 45.8125 346.660156 45.8125 C 344.640625 45.8125 343.152344 47.203125 343.152344 48.953125 C 343.152344 50.777344 344.050781 51.476563 348.3125 53.214844 C 355.921875 56.34375 358.160156 59.039063 358.160156 64.953125 C 358.160156 72.855469 352.5625 78.421875 344.574219 78.421875 C 339.882813 78.421875 335.457031 76.160156 332.339844 72.167969 L 337.039063 65.730469 C 339.652344 68.773438 342.035156 70.15625 344.640625 70.15625 C 347.035156 70.15625 348.820313 68.421875 348.820313 65.984375 C 348.820313 63.816406 347.925781 63.039063 343.8125 61.300781 C 339.789063 59.566406 339.039063 59.214844 337.621094 57.984375 C 335.457031 56.246094 334.421875 53.632813 334.421875 50.257813 C 334.421875 43.214844 339.199219 38.164063 345.765625 38.164063 C 350.027344 38.164063 353.300781 39.386719 356.515625 42.167969 "/>
<path style=" stroke:none;fill-rule:nonzero;fill:rgb(100%,100%,100%);fill-opacity:1;" d="M 374.4375 25.671875 C 374.4375 28.710938 371.972656 31.210938 368.980469 31.210938 C 365.996094 31.210938 363.535156 28.710938 363.535156 25.671875 C 363.535156 22.636719 365.996094 20.140625 368.980469 20.140625 C 372.042969 20.140625 374.4375 22.554688 374.4375 25.671875 M 373.460938 78.421875 L 364.4375 78.421875 L 364.4375 40.773438 L 373.460938 40.773438 "/>
<path style=" stroke:none;fill-rule:nonzero;fill:rgb(100%,100%,100%);fill-opacity:1;" d="M 406.757813 39.5625 L 406.757813 44.421875 C 403.628906 40.171875 400.40625 38.339844 396.089844 38.339844 C 387.128906 38.339844 380.253906 46.957031 380.253906 58.253906 C 380.253906 69.820313 387.054688 78.417969 396.230469 78.417969 C 400.648438 78.417969 403.847656 76.5 406.757813 72.339844 L 406.757813 77.210938 L 415.800781 77.210938 L 415.800781 39.5625 Z M 398.699219 47.820313 C 403.703125 47.820313 407.734375 52.519531 407.734375 58.421875 C 407.734375 64.242188 403.703125 68.945313 398.699219 68.945313 C 393.691406 68.945313 389.59375 64.167969 389.59375 58.335938 C 389.59375 52.519531 393.625 47.820313 398.699219 47.820313 "/>
</g>
</svg>
