<svg xmlns="http://www.w3.org/2000/svg" xmlns:xlink="http://www.w3.org/1999/xlink" width="46.592" height="38.826" viewBox="0 0 46.592 38.826"><defs><linearGradient id="a" x1="-1.254" y1="6.803" x2="3.571" y2="-10.534" gradientUnits="objectBoundingBox"><stop offset="0" stop-color="#012e7d"/><stop offset="0.5" stop-color="#00a5e4"/><stop offset="1" stop-color="#012e7d"/></linearGradient><linearGradient id="b" x1="-3.04" y1="10.798" x2="3.345" y2="-7.776" xlink:href="#a"/><linearGradient id="c" x1="0.222" y1="1.101" x2="0.636" y2="0.019" xlink:href="#a"/><linearGradient id="d" x1="0.33" y1="-0.167" x2="0.593" y2="0.985" gradientUnits="objectBoundingBox"><stop offset="0.122" stop-opacity="0.4"/><stop offset="0.831" stop-opacity="0"/></linearGradient><linearGradient id="e" y1="0.5" x2="1" y2="0.5" gradientUnits="objectBoundingBox"><stop offset="0" stop-color="#e50019"/><stop offset="1" stop-color="#f6760d"/></linearGradient><linearGradient id="f" y1="0.5" x2="1" y2="0.5" gradientUnits="objectBoundingBox"><stop offset="0" stop-color="#f6760d"/><stop offset="0.5" stop-color="#e50019"/><stop offset="1" stop-color="#f6760d"/></linearGradient><linearGradient id="g" x1="0.829" y1="0.856" x2="-0.04" y2="0.284" gradientUnits="objectBoundingBox"><stop offset="0.122" stop-opacity="0.4"/><stop offset="0.704" stop-opacity="0"/></linearGradient></defs><g transform="translate(0 0)"><g transform="translate(7.339 0)"><path d="M131.345,188.6a1.122,1.122,0,0,1-1.125,1.118h-.676a1.118,1.118,0,1,1,0-2.236h.676A1.121,1.121,0,0,1,131.345,188.6Z" transform="translate(-128.42 -175.323)" fill="url(#a)"/><path d="M139.013,165.559a1.109,1.109,0,0,1-.33.79,1.124,1.124,0,0,1-.8.328h-.118a1.118,1.118,0,1,1,0-2.236h.118A1.121,1.121,0,0,1,139.013,165.559Z" transform="translate(-133.452 -161.228)" fill="url(#b)"/><path d="M142.962,159.384a17.193,17.193,0,0,0,6.9-1.489,21.848,21.848,0,0,1,8.365-1.719s6.056-.364,9.93,3.214c.163.151.318.309.474.471a8.77,8.77,0,0,1,1.179,1.544h0v.008a8.553,8.553,0,0,1-2.537,5.538c-.119.123-.239.238-.366.349s-.251.222-.378.325-.259.21-.39.309-.251.186-.37.273c-.275.19-.549.368-.828.534s-.542.309-.812.443c-.287.146-.573.277-.848.4-.207.091-.414.178-.613.254a1.385,1.385,0,0,1-.2.075c-.2.075-.386.142-.57.2-.123.048-.239.083-.35.115l-.335.1c-.267.079-.509.142-.717.194s-.382.083-.514.115c-.08.016-.143.024-.195.036a6.944,6.944,0,0,0,1.489-.57,2.973,2.973,0,0,0,1.517-2.383.743.743,0,0,0,0-.083,3.5,3.5,0,0,0-.047-.7,3.275,3.275,0,0,0-.283-.86A4.086,4.086,0,0,0,158.725,164a10.383,10.383,0,0,0-1.927.083s-5.344.744-7.645,5.293a23.29,23.29,0,0,0-2.4,9.09c-.008.348,0,.7.016,1.049a11.81,11.81,0,0,0,1.338,4.909c.056.1.112.2.171.3a6.7,6.7,0,0,0,4.985,3.317c8.6.788,18.077-11.976,18.077-11.976-2.206,8.947-6.868,13.825-11.224,16.485a15.589,15.589,0,0,1-12.427,1.877,12.931,12.931,0,0,1-8.572-7.89,16.684,16.684,0,0,1-.773-2.435c-.044-.182-.084-.36-.12-.523a12.426,12.426,0,0,1-.223-1.591.068.068,0,0,0,0-.028c-.02-.57-.028-1.14-.012-1.706,0-.1,0-.206,0-.309.012-.542.044-1.085.084-1.611.008-.107.016-.214.024-.317.06-.776.148-1.528.247-2.237.036-.253.072-.5.108-.744h-.741a1.168,1.168,0,0,1-1.187-1.043,1.125,1.125,0,0,1,1.12-1.194h1.211c.119-.566.235-1.069.338-1.492l.187-.744h-1.936a1.158,1.158,0,0,1-1.175-1.037,1.118,1.118,0,0,1,1.12-1.2h2.588l.19-.128c.146-.368.316-.755.507-1.159.072-.155.148-.309.231-.467a1.153,1.153,0,0,0-.279-.277,1.109,1.109,0,0,0-.649-.206H135.59a1.158,1.158,0,0,1-1.174-1.036,1.094,1.094,0,0,1,.328-.872,1.119,1.119,0,0,1,.792-.328h4.929a1.12,1.12,0,0,0,.792-.329,1.1,1.1,0,0,0,.33-.792,1.121,1.121,0,0,0-1.123-1.116h-.8a1.119,1.119,0,0,1-1.122-1.121,1.1,1.1,0,0,1,.33-.788,1.12,1.12,0,0,1,.792-.328Z" transform="translate(-132.086 -156.166)" fill="url(#c)"/></g><path d="M131.345,188.6a1.122,1.122,0,0,1-1.125,1.118h-.676a1.118,1.118,0,1,1,0-2.236h.676A1.121,1.121,0,0,1,131.345,188.6Z" transform="translate(-121.081 -175.323)" fill="#0090ce"/><path d="M139.013,165.559a1.109,1.109,0,0,1-.33.79,1.124,1.124,0,0,1-.8.328h-.118a1.118,1.118,0,1,1,0-2.236h.118A1.121,1.121,0,0,1,139.013,165.559Z" transform="translate(-126.112 -161.228)" fill="#006da8"/><path d="M153.72,219.355l-8.99,2.11a16.7,16.7,0,0,1-.773-2.435c-.044-.182-.083-.36-.12-.523a12.42,12.42,0,0,1-.223-1.591.068.068,0,0,0,0-.028c-.02-.57-.028-1.14-.012-1.706,0-.1,0-.206,0-.309.012-.542.044-1.085.084-1.611l8.68.135c-.008.348,0,.7.016,1.049A11.808,11.808,0,0,0,153.72,219.355Z" transform="translate(-130.361 -191.094)" fill="url(#d)"/><path d="M156.1,176.32s.422,11.2-17.762,11.318l-5.933.126-5.368.111a31.459,31.459,0,0,0-3.665.258c-3.955.485-10.178,1.885-13.853,5.919a13.644,13.644,0,0,1,1.032-2.517c1.576-3.063,5.287-8.1,13.274-10.478a32.918,32.918,0,0,1,7.819-1.268l1.6-.081,9.044-.455a10.289,10.289,0,0,0,2.181-.283.306.306,0,0,1,.045-.01.187.187,0,0,0,.046-.01c.051-.01.117-.02.193-.04.132-.025.31-.061.513-.116s.452-.111.717-.192c.107-.03.219-.066.336-.1s.229-.071.351-.116c.183-.061.376-.127.569-.2a1.584,1.584,0,0,0,.2-.076c.2-.076.407-.162.615-.253.274-.122.56-.253.849-.4.27-.136.539-.283.808-.445s.554-.344.828-.536c.127-.086.249-.172.371-.273s.264-.2.391-.308.254-.212.376-.324.249-.227.366-.349a8.525,8.525,0,0,0,2.537-5.54h.005a11.3,11.3,0,0,1,1.51,5.449C156.109,175.511,156.114,175.905,156.1,176.32Z" transform="translate(-109.517 -164.432)" fill="url(#e)"/><path d="M156.107,176.32s.422,11.2-17.762,11.318l-5.933.126-5.368.111a31.459,31.459,0,0,0-3.665.258c-3.955.485-10.173,1.885-13.848,5.914.163-.329,5.734-11,23.73-10.372l7.361-.03s16.384.207,13.965-13.966h.005a11.3,11.3,0,0,1,1.51,5.449C156.117,175.511,156.123,175.905,156.107,176.32Z" transform="translate(-109.526 -164.432)" fill="url(#f)"/><path d="M209.217,162.109h0v.008a8.552,8.552,0,0,1-2.537,5.538c-.119.123-.239.238-.366.349s-.251.222-.378.325-.259.21-.39.309-.251.186-.37.273c-.275.19-.549.368-.828.534s-.542.309-.812.443c-.287.146-.573.277-.848.4-.207.091-.414.178-.614.254a1.385,1.385,0,0,1-.2.075c-.2.075-.386.142-.57.2-.124.048-.239.083-.35.115l-.335.1c-.267.079-.509.143-.717.194s-.382.083-.514.115c-.08.016-.143.024-.2.036a6.937,6.937,0,0,0,1.489-.57,2.973,2.973,0,0,0,1.517-2.383.537.537,0,0,0,0-.083,3.228,3.228,0,0,0-.33-1.564,3.842,3.842,0,0,0-3.046-2l3.153-7.466a12.22,12.22,0,0,1,5.586,2.779c.163.151.318.309.474.471A8.761,8.761,0,0,1,209.217,162.109Z" transform="translate(-164.15 -156.869)" fill="url(#g)"/></g></svg>