<svg xmlns="http://www.w3.org/2000/svg" width="59.538" height="28.124" viewBox="0 0 59.538 28.124"><g transform="translate(0)"><path d="M281.417,64.307c1.647-.562,3.317-1.068,5-1.537s3.386-.891,5.112-1.255a52.458,52.458,0,0,1,5.274-.856q1.347-.146,2.744-.17a18.338,18.338,0,0,1,2.883.164l.051.007a1.977,1.977,0,1,1-.562,3.913,2.015,2.015,0,0,1-.372-.091,14.761,14.761,0,0,0-2.257-.564c-.795-.139-1.614-.246-2.448-.312a50.3,50.3,0,0,0-5.089-.14c-1.716.034-3.44.128-5.164.271S283.139,64.063,281.417,64.307Z" transform="translate(-277.464 -54.339)" fill="#00a551"/><path d="M279.257,71.431c1.647-.562,3.317-1.068,5-1.537s3.387-.891,5.113-1.255a52.405,52.405,0,0,1,5.274-.856q1.347-.146,2.743-.17a18.339,18.339,0,0,1,2.884.164l.051.007a1.977,1.977,0,1,1-.562,3.913,2.027,2.027,0,0,1-.371-.091,14.783,14.783,0,0,0-2.256-.564c-.795-.139-1.614-.246-2.449-.312a50.285,50.285,0,0,0-5.089-.14c-1.715.034-3.439.128-5.164.271S280.979,71.187,279.257,71.431Z" transform="translate(-277.329 -54.784)" fill="#ed2524"/><path d="M277.2,78.555c1.646-.562,3.316-1.068,5-1.537s3.386-.891,5.112-1.255a52.506,52.506,0,0,1,5.274-.856q1.347-.146,2.744-.17a18.335,18.335,0,0,1,2.883.164l.051.007a1.977,1.977,0,1,1-.562,3.913,2.019,2.019,0,0,1-.372-.091,14.729,14.729,0,0,0-2.256-.564c-.794-.139-1.614-.246-2.448-.312a50.3,50.3,0,0,0-5.089-.14c-1.715.034-3.439.128-5.164.271S278.921,78.311,277.2,78.555Z" transform="translate(-277.2 -55.23)" fill="#d1aa67"/><path d="M334.629,61.617s2.643,2.147,2.048,4.367c0,0-.449,1.169-2.841,2.106a2.617,2.617,0,0,0-.791,1.968.335.335,0,0,0,.236.3c.95.284,4.981,1.6,4.981,3.391,0,2.034-5.224,3.29-5.224,3.29l-.761,1.533s7.9-1.995,7.9-5.377c0-1.242-1.03-2.932-3.673-4.148,0,0,3.131-1.176,3.131-3.316C339.636,64.219,336.915,62.383,334.629,61.617Z" transform="translate(-280.645 -54.409)" fill="#808184"/><path d="M336.348,59.707s-8.27-2.167-10.252,4.65a14.691,14.691,0,0,0,.4,6.949s1.427,5.119-.1,7.934c0,0-.911,1.981-4.558,1.149l-3.991-1.372a.568.568,0,0,0-.68.26h0a.566.566,0,0,0,.132.715,11.3,11.3,0,0,0,6.143,2.4,6.424,6.424,0,0,0,5.985-4.083,10.562,10.562,0,0,0,.4-7.59,14.9,14.9,0,0,1-.475-6.8S330.271,59.575,336.348,59.707Z" transform="translate(-279.695 -54.269)" fill="#2e3191"/><path d="M322.557,62.154c-1.724-1.05-2.278,1.09-2.278,1.09L317.7,71.712l-2.194.106a3.411,3.411,0,0,0,1.809.978l-2.305,6.935c2.814.516,4.182-6.637,4.182-6.637A5.076,5.076,0,0,0,325.055,68,7.2,7.2,0,0,0,322.557,62.154Zm-2.952,9.393,1.188-4.577s.378-1.09,1.09,0a5.623,5.623,0,0,1,.734,2.616S322.855,71.478,319.605,71.547Z" transform="translate(-279.564 -54.425)" fill="#7670b2"/><path d="M329.442,56.208A57.592,57.592,0,0,1,338,58.852a.291.291,0,0,0,.354-.113h0a.29.29,0,0,0-.079-.394c-1.162-.814-6.64-4.416-12.477-4.416a10.625,10.625,0,0,0-9.1,6.064,31.888,31.888,0,0,0-2.992,9.036l-.134.609a.41.41,0,0,1-.4.322h0a.409.409,0,0,1-.378-.249,19,19,0,0,1-.877-2.816c-.08-.5-1.163-4.095-1.823-5.931,0,0-.221-.832-.836-.832-.538,0-.67,1.057-.67,1.057s-.859,3.74-1.783,6.434a67.118,67.118,0,0,0-2.788,9.136s-.644,2.616,0,2.9,1.715-2.9,1.715-2.9l3.16-7.274s.819-2.483,1.572-2.14c.622.159.912,2.061.912,2.061a39.141,39.141,0,0,1,.832,8.177s-.007,1.136.237,1.136c.489,0,1.09-2.305,1.09-2.305s.9-3.494,1.433-6.163a58.979,58.979,0,0,1,3.012-8.971C318.153,61.043,320.637,54.081,329.442,56.208Z" transform="translate(-278.859 -53.928)" fill="#4f4b6a"/></g></svg>