<svg xmlns="http://www.w3.org/2000/svg" width="37.597" height="28.125" viewBox="0 0 37.597 28.125"><path d="M-2325.122,168.51h-24.4a1.561,1.561,0,0,0-1.561,1.561v12.255a1.561,1.561,0,0,0,1.561,1.56h16.918v-1.71h-13.847a2.922,2.922,0,0,0-2.921-2.922v-6.112a2.922,2.922,0,0,0,2.921-2.922h18.252a2.922,2.922,0,0,0,2.921,2.922V179h1.71v-8.928A1.56,1.56,0,0,0-2325.122,168.51Z" transform="translate(2355.494 -161.149)" fill="#1567a0"/><path d="M-2394.688,53.369a1.56,1.56,0,0,0-1.982-.971l-18.1,6.2h5.278l10.469-3.586a2.922,2.922,0,0,0,3.711,1.817l.606,1.769h1.808ZM-2419.75,60.3a1.56,1.56,0,0,0-.97,1.982l3.256,9.506V66.512l-.643-1.876a2.945,2.945,0,0,0,.643-.311v-3.09a2.636,2.636,0,0,1,.981-2.051Z" transform="translate(2420.805 -52.313)" fill="#539940"/><circle cx="1.549" cy="1.549" r="1.549" transform="translate(24.425 13.501)" fill="#00509c"/><circle cx="1.549" cy="1.549" r="1.549" transform="translate(8.871 13.501)" fill="#00509c"/><ellipse cx="3.774" cy="4.877" rx="3.774" ry="4.877" transform="translate(14.4 10.172)" fill="#0a4670"/><path d="M-2037.207,327.35v-2.594s-8.363.961-7.58-8.832c0,0,.6,5.388,7.58,5.232v-2.951l6.148,4.561Z" transform="translate(2068.656 -299.225)" fill="#f86522"/><path d="M-2168.314,237.135h-.715a.462.462,0,0,0-.425.5.462.462,0,0,0,.425.425h.25a2.93,2.93,0,0,1-1.142,2.07.407.407,0,0,1-.45.04.441.441,0,0,1-.235-.4v-2.22h.3a.462.462,0,0,0,.425-.5.461.461,0,0,0-.425-.425h-.3v-2.1a.45.45,0,0,0-.437-.462h-1.006a.461.461,0,0,0-.425.5.461.461,0,0,0,.425.425h.568v1.637h-.895a.462.462,0,0,0-.425.5.462.462,0,0,0,.425.425h.893v2.22a1.373,1.373,0,0,0,.717,1.223,1.25,1.25,0,0,0,1.365-.12,3.951,3.951,0,0,0,1.524-3.272A.45.45,0,0,0-2168.314,237.135Z" transform="translate(2188.512 -222.55)" fill="#fff"/></svg>