<svg xmlns="http://www.w3.org/2000/svg" width="26.32" height="28.127" viewBox="0 0 26.32 28.127"><path d="M598.191,537.734a2.078,2.078,0,0,0-1.481,3.549,2.068,2.068,0,0,0,1.472.614h0a2.089,2.089,0,0,0,2.081-2.086A2.084,2.084,0,0,0,598.191,537.734Zm0,3.225h0a1.144,1.144,0,1,1,.009-2.288h0a1.144,1.144,0,0,1-.009,2.288Zm0-3.225a2.078,2.078,0,0,0-1.481,3.549,2.068,2.068,0,0,0,1.472.614h0a2.089,2.089,0,0,0,2.081-2.086A2.084,2.084,0,0,0,598.191,537.734Zm0,3.225h0a1.144,1.144,0,1,1,.009-2.288h0a1.144,1.144,0,0,1-.009,2.288Zm0-3.225a2.078,2.078,0,0,0-1.481,3.549,2.068,2.068,0,0,0,1.472.614h0a2.089,2.089,0,0,0,2.081-2.086A2.084,2.084,0,0,0,598.191,537.734Zm0,3.225h0a1.144,1.144,0,1,1,.009-2.288h0a1.144,1.144,0,0,1-.009,2.288Zm0-3.225a2.078,2.078,0,0,0-1.481,3.549,2.068,2.068,0,0,0,1.472.614h0a2.089,2.089,0,0,0,2.081-2.086A2.084,2.084,0,0,0,598.191,537.734Zm0,3.225h0a1.144,1.144,0,1,1,.009-2.288h0a1.144,1.144,0,0,1-.009,2.288Zm13.159,1.683a.36.36,0,0,0-.23-.384q-6.35-3.4-12.69-6.8a.5.5,0,0,0-.239-.07.527.527,0,0,0-.239.066c-2.283,1.233-4.566,2.452-6.849,3.675-1.946,1.045-3.9,2.081-5.836,3.131a.46.46,0,0,0-.225.286c-.019.558-.009,1.116-.009,1.692H611.34C611.34,543.692,611.33,543.167,611.344,542.642Zm-.942.661H585.965v-.356q2.187-1.174,4.374-2.344l1.2-.647,1.111-.6q2.763-1.477,5.531-2.967c4.214,2.264,8.325,4.467,12.216,6.544Zm-14.3-3.5a2.09,2.09,0,0,0,.609,1.477,2.068,2.068,0,0,0,1.472.614h0a2.089,2.089,0,0,0,2.081-2.086,2.084,2.084,0,0,0-4.167,0Zm2.091-1.134h0a1.144,1.144,0,0,1-.009,2.288h0a1.144,1.144,0,1,1,.009-2.288Z" transform="translate(-585.025 -535.39)" fill="#0053a1"/><path d="M599.251,537.53q-2.764,1.491-5.532,2.967l-1.111.6-1.2.647q-2.187,1.167-4.374,2.344v.356h24.437v-.366C607.576,542,603.465,539.794,599.251,537.53Zm1.472,4.889a2.057,2.057,0,0,1-1.472.614h0a2.068,2.068,0,0,1-1.472-.614,2.084,2.084,0,1,1,2.949,0Z" transform="translate(-586.09 -536.527)" fill="#bbdef9"/><path d="M612.942,543.529a1.149,1.149,0,0,1-1.144,1.149h0a1.144,1.144,0,1,1,.009-2.288h0A1.148,1.148,0,0,1,612.942,543.529Z" transform="translate(-598.638 -539.109)" fill="#bbdef9"/><path d="M585.065,587.365h2.063c1.388,0,2.776.007,4.165,0a.373.373,0,0,1,.4.275c.245.538.524,1.06.791,1.594h-7.418Z" transform="translate(-585.046 -562.998)" fill="#0053a1"/><path d="M625.325,589.23c.282-.579.559-1.157.85-1.727a.293.293,0,0,1,.22-.125c2.1-.007,4.2-.006,6.33-.006v1.858Z" transform="translate(-606.433 -563.004)" fill="#0053a1"/><path d="M628.041,581.39H632.7v1.845h-4.767Z" transform="translate(-607.821 -559.827)" fill="#117fed"/><path d="M588.063,583.243V581.4h4.663l.118,1.848Z" transform="translate(-586.639 -559.829)" fill="#117fed"/><path d="M595.62,561.117a2.5,2.5,0,0,0,.3-.876,7.384,7.384,0,0,0,.081-1.154,3.508,3.508,0,0,0-.341-1.706,1.815,1.815,0,0,0-.949-.837,4.033,4.033,0,0,0-1.443-.234h-2.264v10.806h1.818v-5.007h.518l1.1,5.007h.066a6.889,6.889,0,0,1,1.159-2.661L595,561.732A1.784,1.784,0,0,0,595.62,561.117Zm-1.392-1.025a.938.938,0,0,1-.3.506.918.918,0,0,1-.6.175h-.507v-2.906h.589a.725.725,0,0,1,.711.376,2.338,2.338,0,0,1,.193,1.051A3.189,3.189,0,0,1,594.229,560.092Z" transform="translate(-588.202 -546.503)" fill="#0053a1"/><path d="M602.117,556.31v1.726h1.544v4.491a6.954,6.954,0,0,1,1.828-.767v-3.724h1.534V556.31Z" transform="translate(-594.105 -546.503)" fill="#0053a1"/><path d="M617.711,557.776a2.116,2.116,0,0,0-.747-1.077,2.358,2.358,0,0,0-1.437-.389,2.256,2.256,0,0,0-1.477.448,2.4,2.4,0,0,0-.766,1.265,7.36,7.36,0,0,0-.224,1.933v1.58h.029a7.115,7.115,0,0,1,1.83.246v-2.513a5.318,5.318,0,0,1,.035-.623,1.149,1.149,0,0,1,.167-.5.563.563,0,0,1,.838-.027.978.978,0,0,1,.162.461,5.021,5.021,0,0,1,.036.623v.856h1.777v-.675A5.224,5.224,0,0,0,617.711,557.776Zm-2.143,3.736v.479a6.948,6.948,0,0,1,2.377,1.511v-1.99Z" transform="translate(-599.918 -546.503)" fill="#0053a1"/><path d="M629.665,562.64a5.723,5.723,0,0,0-.909-1.323l-.68-.766a4.993,4.993,0,0,1-.574-.772,1.852,1.852,0,0,1-.218-.953,1.382,1.382,0,0,1,.117-.545.388.388,0,0,1,.371-.272.374.374,0,0,1,.345.188,1.323,1.323,0,0,1,.148.532q.035.345.046.811l1.564-.246a7.924,7.924,0,0,0-.087-.98,3.668,3.668,0,0,0-.284-.973,1.814,1.814,0,0,0-.609-.746,1.793,1.793,0,0,0-1.062-.286,2.127,2.127,0,0,0-1.686.707,3.012,3.012,0,0,0-.619,2.043,3.541,3.541,0,0,0,.32,1.589,4.942,4.942,0,0,0,.787,1.148l.711.791a4.665,4.665,0,0,1,.661.9,2.271,2.271,0,0,1,.243,1.1,1.55,1.55,0,0,1-.086.519.353.353,0,0,1-.37.246.487.487,0,0,1-.381-.181,1.343,1.343,0,0,1-.244-.6,5.978,5.978,0,0,1-.1-1.09l-1.553.3a8.454,8.454,0,0,0,.077.983,6.875,6.875,0,0,1,.836,1.875,1.6,1.6,0,0,0,.163.125,2.251,2.251,0,0,0,1.29.35,1.893,1.893,0,0,0,1.143-.35,2.275,2.275,0,0,0,.746-.954,3.315,3.315,0,0,0,.264-1.343A4.06,4.06,0,0,0,629.665,562.64Z" transform="translate(-606.535 -546.503)" fill="#0053a1"/><path d="M612.8,575.476a6,6,0,0,1-.159,1.369,5.751,5.751,0,0,1-.3.938h-5.958v1.43c-1.1-.642-2.152-1.247-3.258-1.889,1.088-.628,2.138-1.238,3.225-1.87v1.392h5.321a5.218,5.218,0,0,0,.192-1.416,5.173,5.173,0,0,0-9.779-2.33H601.05a6.111,6.111,0,0,1,11.752,2.377Z" transform="translate(-593.538 -553.425)" fill="#0053a1"/><path d="M611.822,580.444a6.109,6.109,0,0,1-11.752-2.414,5.978,5.978,0,0,1,.46-2.269h5.977V574.35c1.088.633,2.133,1.238,3.239,1.875-1.092.638-2.147,1.247-3.234,1.88v-1.4H601.2a4.989,4.989,0,0,0-.2,1.411,5.17,5.17,0,0,0,9.779,2.325Z" transform="translate(-593.017 -556.087)" fill="#117fed"/></svg>